<?xml version="1.0" encoding="utf-8"?>
<!-- Generator: Adobe Illustrator 24.0.1, SVG Export Plug-In . SVG Version: 6.00 Build 0)  -->
<svg version="1.1" id="Layer_1" xmlns="http://www.w3.org/2000/svg" xmlns:xlink="http://www.w3.org/1999/xlink" x="0px" y="0px"
	 viewBox="0 0 86.12 80" style="enable-background:new 0 0 86.12 80;" xml:space="preserve">
<style type="text/css">
	.st0{fill:#252428;}
</style>
<g>
	<g>
		<path class="st0" d="M76.4,66.07c12.51-16.26,2.5-26.91,2.5-26.91c-5.68-5.32-6.99-0.54-6.99-0.54c8.39,15.27,0.75,23,0.75,23
			L56.08,37.46l-5.83,4.77l16.85,24.58c-3.89,5.41-13.43,6.57-13.43,6.57c-16.73,0.94-16.79-14.59-16.79-14.59
			c0.62-14.07,13.27-21.81,13.27-21.81c12.18-6.96,13.77-14.93,13.77-14.93c4.22-9.54-3.6-15.94-3.6-15.94
			C49.87-1.09,41.42,6.57,41.42,6.57L39.55,0h-4.62L9.85,63.31C6.72,73,0,72.69,0,72.69v1.25h23.45v-0.78
			c-1.4-0.1-6.09-1.61-6.09-1.61c-3.75-1.41-1.01-6.83-1.01-6.83l9.45-24.43h13.76c-5.79,3.4-8.44,8.64-8.44,8.64
			c-9.11,16.75,5,26.11,5,26.11c20.01,12.98,35.33-3.59,35.33-3.59c5.49,8.2,5.45,8.56,5.45,8.56c1.91,0,2.67,0,2.67,0
			c4.81,0,6.55,0,6.55,0C79.13,69.91,76.4,66.07,76.4,66.07z M42.83,13.6c0,0,2.97-7.5,11.26-3.91c0,0,5.16,3.13,3.75,8.91
			c0,0-1.25,7.66-8.76,13.45C49.08,32.05,39.87,20.95,42.83,13.6z M27.05,35.49l7.97-19.38c0,0,3.75,17.2,7.81,19.38H27.05z"/>
	</g>
</g>
</svg>
