<?xml version="1.0" encoding="utf-8"?>
<!-- Generator: Adobe Illustrator 24.0.1, SVG Export Plug-In . SVG Version: 6.00 Build 0)  -->
<svg version="1.1" id="Layer_1" xmlns="http://www.w3.org/2000/svg" xmlns:xlink="http://www.w3.org/1999/xlink" x="0px" y="0px"
	 viewBox="0 0 151.34 40" style="enable-background:new 0 0 151.34 40;" xml:space="preserve">
<g>
	<g>
		<g>
			<g>
				<path d="M36.07,31.19c5.9-7.68,1.18-12.71,1.18-12.71c-2.68-2.51-3.3-0.25-3.3-0.25c3.96,7.21,0.35,10.86,0.35,10.86l-7.83-11.4
					l-2.75,2.25l7.96,11.6c-1.84,2.55-6.34,3.1-6.34,3.1c-7.9,0.44-7.92-6.89-7.92-6.89c0.29-6.64,6.26-10.3,6.26-10.3
					c5.75-3.28,6.5-7.05,6.5-7.05c1.99-4.5-1.7-7.53-1.7-7.53c-4.94-3.4-8.93,0.22-8.93,0.22L18.67,0h-2.18L4.65,29.89
					C3.17,34.46,0,34.32,0,34.32v0.59h11.07v-0.37c-0.66-0.05-2.88-0.76-2.88-0.76c-1.77-0.66-0.47-3.22-0.47-3.22l4.46-11.53h6.5
					c-2.73,1.61-3.99,4.08-3.99,4.08c-4.3,7.91,2.36,12.33,2.36,12.33c9.45,6.13,16.68-1.7,16.68-1.7c2.59,3.87,2.57,4.04,2.57,4.04
					c0.9,0,1.26,0,1.26,0c2.27,0,3.09,0,3.09,0C37.35,33,36.07,31.19,36.07,31.19z M20.22,6.42c0,0,1.4-3.54,5.31-1.84
					c0,0,2.43,1.48,1.77,4.2c0,0-0.59,3.62-4.13,6.35C23.17,15.13,18.82,9.89,20.22,6.42z M12.77,16.75l3.76-9.15
					c0,0,1.77,8.12,3.69,9.15H12.77z"/>
			</g>
		</g>
	</g>
	<g>
		<g>
			<path d="M64.29,20.7h-3.27l-1.38-4.06h-7.98l-1.38,4.06h-3.27l7.41-20.2h2.46L64.29,20.7z M58.78,14.04l-3.06-8.96l-3.14,8.96
				H58.78z"/>
		</g>
		<g>
			<path d="M78.47,20.7h-2.9v-8.76c0-0.72-0.13-1.32-0.38-1.8c-0.25-0.48-0.6-0.83-1.03-1.06c-0.43-0.23-0.93-0.34-1.48-0.34
				c-0.87,0-1.58,0.27-2.14,0.81c-0.56,0.54-0.84,1.34-0.84,2.39v8.76h-2.9V6.32h2.84v1.45c0.48-0.53,1.06-0.93,1.73-1.21
				c0.67-0.28,1.37-0.42,2.09-0.42c1.47,0,2.65,0.44,3.55,1.32c0.97,0.93,1.45,2.28,1.45,4.05V20.7z"/>
		</g>
		<g>
			<path d="M94.02,20.7h-2.84v-1.54c-0.36,0.44-0.73,0.79-1.11,1.02c-0.38,0.24-0.79,0.41-1.22,0.52c-0.43,0.11-0.93,0.16-1.48,0.16
				c-0.71,0-1.37-0.12-1.99-0.35c-0.61-0.23-1.12-0.54-1.53-0.93c-0.45-0.45-0.8-1-1.03-1.65c-0.24-0.65-0.39-1.33-0.46-2.03
				c-0.07-0.7-0.11-1.5-0.11-2.41c0-0.91,0.04-1.71,0.11-2.4c0.07-0.7,0.23-1.37,0.46-2.02c0.24-0.65,0.58-1.2,1.03-1.65
				c0.41-0.41,0.92-0.72,1.52-0.95c0.61-0.23,1.27-0.34,1.97-0.34c0.81,0,1.51,0.12,2.11,0.36c0.6,0.24,1.16,0.66,1.67,1.27V0.5h2.9
				V20.7z M91.13,13.51c0-0.98-0.07-1.81-0.22-2.5c-0.15-0.69-0.44-1.24-0.88-1.65c-0.44-0.41-1.06-0.62-1.88-0.62
				c-0.82,0-1.46,0.21-1.9,0.62c-0.44,0.42-0.74,0.96-0.89,1.65c-0.15,0.68-0.22,1.51-0.22,2.49c0,0.98,0.07,1.81,0.22,2.5
				c0.15,0.69,0.44,1.24,0.89,1.66c0.44,0.42,1.08,0.63,1.9,0.63c1.18,0,1.97-0.42,2.38-1.26C90.93,16.18,91.13,15.01,91.13,13.51z"
				/>
		</g>
		<g>
			<path d="M104.63,20.7h-1.73c-0.85,0-1.57-0.18-2.17-0.55c-0.6-0.37-1.04-0.86-1.34-1.46c-0.3-0.61-0.44-1.27-0.44-1.99V8.79
				h-1.63V6.57h1.63V2.21h2.9v4.37h2.78v2.22h-2.78v7.77c0,1.12,0.53,1.68,1.59,1.68h1.19V20.7z"/>
		</g>
		<g>
			<path d="M119.93,20.7h-2.9v-8.82c0-1.05-0.27-1.84-0.8-2.36c-0.54-0.52-1.23-0.78-2.09-0.78c-0.86,0-1.56,0.26-2.11,0.79
				c-0.55,0.53-0.82,1.31-0.82,2.35v8.82h-2.9V0.5h2.9v7.27c0.98-1.09,2.22-1.63,3.71-1.63c1.03,0,1.93,0.22,2.69,0.66
				c0.76,0.44,1.33,1.05,1.72,1.85c0.39,0.79,0.59,1.72,0.59,2.77V20.7z"/>
		</g>
		<g>
			<path d="M135.84,14.34h-9.34c0,0.84,0.14,1.56,0.43,2.15c0.29,0.6,0.7,1.06,1.24,1.38c0.54,0.33,1.21,0.49,2,0.49
				c0.79,0,1.44-0.11,1.93-0.33c0.49-0.22,1.01-0.6,1.57-1.14l1.84,1.72c-0.79,0.79-1.58,1.36-2.39,1.71
				c-0.81,0.36-1.81,0.53-3.01,0.53c-0.92,0-1.78-0.13-2.57-0.4c-0.79-0.27-1.48-0.69-2.06-1.27c-0.58-0.58-1.04-1.34-1.36-2.29
				c-0.32-0.94-0.48-2.08-0.48-3.41c0-1.54,0.25-2.86,0.76-3.96c0.5-1.1,1.21-1.94,2.13-2.52c0.92-0.58,1.99-0.87,3.22-0.87
				c1.26,0,2.35,0.29,3.27,0.87c0.92,0.58,1.63,1.4,2.11,2.45c0.48,1.05,0.72,2.25,0.72,3.61V14.34z M132.97,12.34
				c-0.03-0.75-0.16-1.4-0.39-1.96c-0.23-0.55-0.59-1-1.09-1.33c-0.49-0.33-1.08-0.5-1.75-0.5c-0.66,0-1.25,0.17-1.75,0.5
				c-0.5,0.33-0.88,0.78-1.12,1.33c-0.13,0.3-0.21,0.56-0.26,0.79c-0.04,0.23-0.08,0.62-0.12,1.17H132.97z"/>
		</g>
		<g>
			<path d="M151.34,20.7h-2.9v-8.76c0-0.72-0.13-1.32-0.38-1.8c-0.25-0.48-0.6-0.83-1.03-1.06c-0.43-0.23-0.93-0.34-1.48-0.34
				c-0.87,0-1.58,0.27-2.14,0.81c-0.56,0.54-0.84,1.34-0.84,2.39v8.76h-2.9V6.32h2.84v1.45c0.48-0.53,1.06-0.93,1.73-1.21
				c0.67-0.28,1.37-0.42,2.09-0.42c1.47,0,2.65,0.44,3.55,1.32c0.97,0.93,1.46,2.28,1.46,4.05V20.7z"/>
		</g>
	</g>
	<g>
		<g>
			<g>
				<path d="M58.06,36.71H47.9V25.3h10.16v1.56h-7.73v3.33h6.6v1.54h-6.6v3.43h7.73V36.71z"/>
			</g>
			<g>
				<path d="M70.27,36.71h-2.27v-4.95c0-0.41-0.1-0.75-0.3-1.02c-0.2-0.27-0.47-0.47-0.81-0.6c-0.34-0.13-0.73-0.19-1.16-0.19
					c-0.68,0-1.24,0.15-1.68,0.46c-0.44,0.31-0.66,0.76-0.66,1.35v4.95H61.1v-8.13h2.23v0.82c0.38-0.3,0.83-0.53,1.36-0.68
					c0.53-0.16,1.08-0.24,1.64-0.24c1.15,0,2.08,0.25,2.79,0.74c0.76,0.53,1.14,1.29,1.14,2.29V36.71z"/>
			</g>
			<g>
				<path d="M78.49,36.71h-1.36c-0.67,0-1.24-0.1-1.71-0.31c-0.47-0.21-0.82-0.48-1.05-0.83c-0.23-0.34-0.35-0.72-0.35-1.12v-4.47
					h-1.28v-1.25h1.28v-2.46h2.28v2.46h2.19v1.25H76.3v4.39c0,0.63,0.42,0.95,1.25,0.95h0.94V36.71z"/>
			</g>
			<g>
				<path d="M90.39,33.12h-7.34c0,0.47,0.11,0.88,0.34,1.22c0.22,0.34,0.55,0.6,0.97,0.78c0.42,0.18,0.95,0.28,1.57,0.28
					c0.63,0,1.13-0.06,1.52-0.19c0.38-0.13,0.79-0.34,1.23-0.64l1.45,0.97c-0.62,0.44-1.24,0.77-1.88,0.97
					c-0.63,0.2-1.42,0.3-2.36,0.3c-0.73,0-1.4-0.08-2.02-0.23c-0.62-0.15-1.16-0.39-1.62-0.72c-0.46-0.33-0.82-0.76-1.07-1.29
					c-0.26-0.53-0.38-1.17-0.38-1.92c0-0.87,0.2-1.62,0.59-2.24c0.4-0.62,0.95-1.1,1.67-1.43c0.72-0.33,1.56-0.49,2.53-0.49
					c0.99,0,1.85,0.16,2.57,0.49c0.73,0.33,1.28,0.79,1.66,1.38c0.38,0.59,0.57,1.27,0.57,2.04V33.12z M88.14,31.98
					c-0.02-0.42-0.12-0.79-0.31-1.1c-0.18-0.31-0.46-0.56-0.85-0.75c-0.39-0.19-0.85-0.28-1.38-0.28c-0.52,0-0.98,0.1-1.38,0.28
					c-0.4,0.19-0.69,0.44-0.88,0.75c-0.1,0.17-0.17,0.31-0.2,0.44c-0.03,0.13-0.06,0.35-0.09,0.66H88.14z"/>
			</g>
			<g>
				<path d="M101.34,29.26l-1.72,1.23c-0.26-0.19-0.51-0.33-0.75-0.42c-0.24-0.08-0.55-0.13-0.94-0.13c-0.41,0-0.78,0.08-1.13,0.23
					c-0.34,0.15-0.62,0.36-0.82,0.64c-0.2,0.27-0.3,0.59-0.3,0.96v4.93H93.4v-8.13h2.23v0.88c0.3-0.3,0.72-0.54,1.26-0.72
					c0.54-0.18,1.12-0.27,1.75-0.27c0.56,0,1.05,0.06,1.48,0.18C100.54,28.78,100.95,28.98,101.34,29.26z"/>
			</g>
			<g>
				<path d="M112.45,32.64c0,0.51-0.03,0.97-0.09,1.36c-0.06,0.4-0.18,0.78-0.38,1.15c-0.19,0.37-0.46,0.68-0.81,0.93
					c-0.31,0.22-0.71,0.4-1.19,0.53c-0.48,0.13-1,0.19-1.56,0.19c-0.63,0-1.18-0.07-1.66-0.22c-0.48-0.14-0.91-0.38-1.3-0.71V40
					h-2.28V28.59h2.23v0.87c0.41-0.36,0.86-0.61,1.32-0.75c0.47-0.14,1.02-0.21,1.66-0.21c0.57,0,1.1,0.06,1.58,0.2
					c0.49,0.13,0.89,0.31,1.18,0.53c0.35,0.25,0.62,0.56,0.81,0.93c0.19,0.37,0.32,0.75,0.38,1.14
					C112.42,31.68,112.45,32.13,112.45,32.64z M110.17,32.65c0-0.55-0.06-1.02-0.18-1.41c-0.11-0.39-0.35-0.7-0.69-0.93
					c-0.35-0.23-0.84-0.35-1.48-0.35c-0.65,0-1.14,0.12-1.49,0.35c-0.35,0.23-0.58,0.54-0.7,0.93c-0.12,0.39-0.17,0.86-0.17,1.41
					c0,0.55,0.06,1.02,0.17,1.41c0.12,0.39,0.35,0.7,0.7,0.94c0.35,0.24,0.85,0.35,1.49,0.35c0.93,0,1.55-0.24,1.87-0.71
					C110.02,34.16,110.17,33.5,110.17,32.65z"/>
			</g>
			<g>
				<path d="M123.47,29.26l-1.72,1.23c-0.26-0.19-0.51-0.33-0.75-0.42c-0.24-0.08-0.55-0.13-0.94-0.13c-0.41,0-0.78,0.08-1.13,0.23
					c-0.35,0.15-0.62,0.36-0.82,0.64c-0.21,0.27-0.3,0.59-0.3,0.96v4.93h-2.28v-8.13h2.23v0.88c0.3-0.3,0.72-0.54,1.26-0.72
					c0.54-0.18,1.12-0.27,1.75-0.27c0.56,0,1.05,0.06,1.48,0.18C122.67,28.78,123.08,28.98,123.47,29.26z"/>
			</g>
			<g>
				<path d="M127.66,26.98h-2.4v-1.73h2.4V26.98z M127.59,36.71h-2.27v-8.13h2.27V36.71z"/>
			</g>
			<g>
				<path d="M139.57,34.23c0,0.55-0.2,1.02-0.6,1.41c-0.4,0.39-0.95,0.68-1.66,0.87c-0.7,0.2-1.52,0.3-2.45,0.3
					c-0.68,0-1.29-0.04-1.84-0.1c-0.55-0.07-1.06-0.18-1.54-0.35c-0.47-0.17-0.93-0.41-1.38-0.71l1.49-1.07
					c0.76,0.56,1.85,0.85,3.26,0.85c0.46,0,0.89-0.04,1.27-0.13c0.38-0.08,0.68-0.21,0.89-0.38c0.21-0.17,0.32-0.37,0.32-0.62
					c0-0.58-0.5-0.91-1.51-0.96l-1.81-0.11c-0.72-0.04-1.33-0.16-1.83-0.33c-0.5-0.17-0.88-0.42-1.14-0.74
					c-0.26-0.32-0.39-0.71-0.39-1.18c0-0.77,0.41-1.37,1.22-1.82c0.81-0.45,1.82-0.67,3.05-0.67c1.82,0,3.22,0.3,4.2,0.92
					l-1.43,1.04c-0.66-0.4-1.59-0.6-2.79-0.6c-0.67,0-1.18,0.1-1.53,0.28c-0.35,0.19-0.53,0.44-0.53,0.77
					c0,0.55,0.52,0.86,1.57,0.92l1.78,0.12c0.7,0.04,1.31,0.15,1.81,0.33c0.5,0.18,0.89,0.43,1.16,0.76
					C139.44,33.35,139.57,33.75,139.57,34.23z"/>
			</g>
			<g>
				<path d="M151.34,33.12H144c0,0.47,0.11,0.88,0.34,1.22c0.23,0.34,0.55,0.6,0.97,0.78c0.43,0.18,0.95,0.28,1.58,0.28
					c0.62,0,1.13-0.06,1.51-0.19c0.39-0.13,0.8-0.34,1.23-0.64l1.45,0.97c-0.62,0.44-1.24,0.77-1.88,0.97
					c-0.63,0.2-1.42,0.3-2.36,0.3c-0.73,0-1.4-0.08-2.02-0.23c-0.62-0.15-1.16-0.39-1.62-0.72c-0.46-0.33-0.81-0.76-1.07-1.29
					c-0.25-0.53-0.38-1.17-0.38-1.92c0-0.87,0.2-1.62,0.6-2.24c0.4-0.62,0.95-1.1,1.67-1.43c0.72-0.33,1.56-0.49,2.53-0.49
					c0.99,0,1.84,0.16,2.57,0.49c0.73,0.33,1.28,0.79,1.66,1.38c0.38,0.59,0.57,1.27,0.57,2.04V33.12z M149.09,31.98
					c-0.02-0.42-0.12-0.79-0.3-1.1c-0.18-0.31-0.47-0.56-0.86-0.75c-0.39-0.19-0.85-0.28-1.38-0.28c-0.52,0-0.98,0.1-1.38,0.28
					c-0.4,0.19-0.69,0.44-0.88,0.75c-0.1,0.17-0.17,0.31-0.2,0.44c-0.03,0.13-0.06,0.35-0.09,0.66H149.09z"/>
			</g>
		</g>
	</g>
</g>
</svg>
