<?xml version="1.0" encoding="utf-8"?>
<!-- Generator: Adobe Illustrator 24.0.1, SVG Export Plug-In . SVG Version: 6.00 Build 0)  -->
<svg version="1.1" id="Layer_1" xmlns="http://www.w3.org/2000/svg" xmlns:xlink="http://www.w3.org/1999/xlink" x="0px" y="0px"
	 viewBox="0 0 167.21 40" style="enable-background:new 0 0 167.21 40;" xml:space="preserve">
<style type="text/css">
	.st0{fill:#141145;}
</style>
<g>
	<g>
		<path class="st0" d="M19,0.04h1.79v19.1c0,1.53-0.11,2.83-0.34,3.92c-0.23,1.09-0.59,2.05-1.09,2.88c-1.01,1.64-2.3,2.9-3.85,3.79
			c-1.55,0.88-3.26,1.32-5.13,1.32c-3,0-5.47-1.01-7.43-3.04C0.98,26,0,23.44,0,20.34c0-1.46,0.25-2.83,0.75-4.12
			c0.5-1.29,1.23-2.45,2.18-3.47c0.97-1.03,2.09-1.81,3.37-2.34c1.28-0.53,2.67-0.8,4.16-0.8c1.33,0,2.59,0.23,3.79,0.71
			c1.2,0.47,2.32,1.17,3.36,2.1v2.38c-1.03-1.17-2.13-2.04-3.31-2.61c-1.19-0.57-2.46-0.86-3.83-0.86c-2.48,0-4.53,0.86-6.15,2.57
			c-1.62,1.71-2.43,3.88-2.43,6.5c0,2.59,0.82,4.76,2.46,6.48c1.63,1.73,3.67,2.59,6.11,2.59c2.6,0,4.67-0.92,6.22-2.75
			c1.55-1.83,2.32-4.3,2.32-7.41V0.04z"/>
		<path class="st0" d="M43.53,28.98v1.69h-0.52h-1.03c-5.39,0-9.59-1.35-12.6-4.05c-3.01-2.7-4.51-6.46-4.51-11.29
			c0-4.83,1.5-8.6,4.49-11.29C32.36,1.35,36.56,0,41.95,0c0.44,0,0.77,0,0.98,0.01c0.21,0.01,0.41,0.02,0.6,0.05v1.69
			c-0.23-0.02-0.47-0.03-0.71-0.03c-0.24-0.01-0.62-0.01-1.13-0.01c-4.66,0-8.3,1.2-10.9,3.61c-2.6,2.4-3.9,5.74-3.9,10.02
			c0,4.29,1.31,7.64,3.94,10.06c2.62,2.41,6.29,3.61,11,3.61c0.46,0,0.81,0,1.06-0.01C43.13,28.99,43.34,28.98,43.53,28.98z"/>
		<path class="st0" d="M65.39,30.67v-9.28c0-3.11-0.77-5.58-2.32-7.41c-1.55-1.83-3.62-2.75-6.22-2.75c-2.44,0-4.47,0.86-6.12,2.59
			c-1.64,1.73-2.46,3.89-2.46,6.48c0,2.63,0.81,4.79,2.43,6.5c1.62,1.71,3.67,2.57,6.15,2.57c1.37,0,2.65-0.29,3.83-0.86
			c1.19-0.58,2.29-1.44,3.32-2.6v2.35c-1.02,0.94-2.13,1.64-3.32,2.11c-1.19,0.46-2.46,0.7-3.82,0.7c-1.49,0-2.88-0.27-4.17-0.8
			c-1.29-0.53-2.41-1.31-3.36-2.34c-0.95-1.03-1.68-2.19-2.18-3.48c-0.5-1.29-0.75-2.66-0.75-4.1c0-3.11,0.98-5.67,2.94-7.7
			c1.96-2.02,4.44-3.04,7.43-3.04c1.87,0,3.58,0.44,5.13,1.33c1.55,0.88,2.84,2.15,3.85,3.81c0.5,0.83,0.86,1.79,1.09,2.88
			c0.23,1.09,0.34,2.39,0.34,3.9v9.15H65.39z"/>
		<path class="st0" d="M72.32,4.13h1.8v5.86h7.31v1.71h-7.31v11.57c0,2,0.48,3.45,1.46,4.37c0.97,0.91,2.51,1.37,4.62,1.37h1.24
			v1.67h-0.92c-2.74,0-4.79-0.6-6.15-1.81c-1.37-1.2-2.04-3.01-2.04-5.42V4.13z"/>
		<path class="st0" d="M103.02,30.67v-9.28c0-3.11-0.77-5.58-2.32-7.41c-1.55-1.83-3.62-2.75-6.21-2.75c-2.44,0-4.48,0.86-6.12,2.59
			c-1.64,1.73-2.46,3.89-2.46,6.48c0,2.63,0.8,4.79,2.43,6.5c1.62,1.71,3.67,2.57,6.15,2.57c1.37,0,2.65-0.29,3.83-0.86
			c1.18-0.58,2.29-1.44,3.32-2.6v2.35c-1.03,0.94-2.14,1.64-3.33,2.11c-1.19,0.46-2.46,0.7-3.82,0.7c-1.5,0-2.89-0.27-4.17-0.8
			c-1.28-0.53-2.4-1.31-3.36-2.34c-0.96-1.03-1.68-2.19-2.18-3.48c-0.5-1.29-0.75-2.66-0.75-4.1c0-3.11,0.98-5.67,2.94-7.7
			c1.96-2.02,4.44-3.04,7.43-3.04c1.87,0,3.58,0.44,5.14,1.33c1.55,0.88,2.84,2.15,3.85,3.81c0.5,0.83,0.86,1.79,1.09,2.88
			c0.23,1.09,0.34,2.39,0.34,3.9v9.15H103.02z"/>
		<path class="st0" d="M110.21,30.67V0.04H112v30.63H110.21z"/>
		<path class="st0" d="M132.41,9.99h1.8v11.7c0,2.72-0.64,4.88-1.92,6.46c-1.28,1.58-3.15,2.54-5.61,2.87V40h-1.8v-8.98
			c-2.48-0.37-4.35-1.34-5.61-2.9c-1.26-1.56-1.88-3.71-1.88-6.43V9.99h1.76v12.28c0,2.13,0.62,3.85,1.85,5.18
			c1.23,1.33,2.83,2,4.8,2c1.95,0,3.54-0.67,4.77-1.99c1.22-1.33,1.84-3.06,1.84-5.2V9.99z"/>
		<path class="st0" d="M138.25,28.96h8.96c1.57,0,2.79-0.31,3.66-0.92c0.87-0.61,1.3-1.46,1.3-2.55c0-1.04-0.37-1.9-1.13-2.59
			c-0.75-0.68-1.95-1.25-3.6-1.69l-4-1.11c-1.75-0.48-3.05-1.16-3.89-2.02c-0.84-0.86-1.26-1.95-1.26-3.26
			c0-1.55,0.56-2.75,1.69-3.58c1.13-0.84,2.74-1.25,4.84-1.25h7.61v1.67h-8.28c-1.33,0-2.34,0.28-3.03,0.83
			c-0.69,0.55-1.04,1.36-1.04,2.42c0,0.84,0.34,1.56,1.01,2.14c0.67,0.59,1.73,1.08,3.19,1.5l4.17,1.18
			c1.81,0.5,3.18,1.22,4.12,2.18c0.94,0.96,1.4,2.11,1.4,3.47c0,1.79-0.66,3.13-1.98,4c-1.32,0.87-3.35,1.31-6.09,1.31h-7.66V28.96z
			"/>
		<path class="st0" d="M158.1,4.13h1.79v5.86h7.32v1.71h-7.32v11.57c0,2,0.49,3.45,1.46,4.37c0.97,0.91,2.51,1.37,4.62,1.37h1.24
			v1.67h-0.92c-2.74,0-4.79-0.6-6.15-1.81c-1.36-1.2-2.04-3.01-2.04-5.42V4.13z"/>
	</g>
</g>
</svg>
