<?xml version="1.0" encoding="utf-8"?>
<!-- Generator: Adobe Illustrator 15.0.0, SVG Export Plug-In . SVG Version: 6.00 Build 0)  -->
<!DOCTYPE svg PUBLIC "-//W3C//DTD SVG 1.1//EN" "http://www.w3.org/Graphics/SVG/1.1/DTD/svg11.dtd">
<svg version="1.1" id="Layer_1" xmlns="http://www.w3.org/2000/svg" xmlns:xlink="http://www.w3.org/1999/xlink" x="0px" y="0px"
	 width="84.297px" height="21.196px" viewBox="110.203 -150.696 84.297 21.196"
	 enable-background="new 110.203 -150.696 84.297 21.196" xml:space="preserve">
<g>
	<path fill="#252428" d="M119.5-144.486c0-0.442-0.988-0.785-1.587-1.021c-1.381-0.544-2.972-0.501-4.299,0.052
		c-0.703,0.294-1.3,0.729-1.83,1.292c-0.519,0.556-0.907,1.194-1.179,1.897c-0.271,0.701-0.402,1.454-0.402,2.239
		c0,1.675,0.545,3.084,1.615,4.189c1.073,1.107,2.446,1.669,4.077,1.669c1.02,0,1.968-0.244,2.813-0.727
		c0.847-0.481,1.556-1.176,2.108-2.069c0.278-0.46,0.43-0.997,0.555-1.596c0.12-0.571,0.128-1.266,0.128-2.065v-9.875h-2V-144.486z
		 M119.5-140.549c0,1.426-0.247,2.565-0.938,3.383c-0.682,0.807-1.521,1.197-2.674,1.197c-1.087,0-1.942-0.372-2.669-1.14
		c-0.736-0.772-1.081-1.719-1.081-2.896c0-1.19,0.359-2.141,1.085-2.907c0.718-0.759,1.607-1.127,2.713-1.127
		c0.606,0,1.179,0.127,1.7,0.379c0.526,0.253,0.928,0.651,1.396,1.184l0.468,0.649V-140.549z"/>
	<path fill="#252428" d="M132.192-150.69c-0.112-0.004-0.281-0.006-0.508-0.006c-2.812,0-5.041,0.724-6.624,2.149
		c-1.601,1.439-2.413,3.464-2.413,6.019c0,2.546,0.815,4.5,2.422,5.944c1.592,1.43,3.824,2.084,6.633,2.084h0.797v-1.704
		l-0.606,0.005c-0.121,0.004-0.172,0.006-0.393,0.006c-2.214,0-3.891-0.563-5.101-1.675c-1.216-1.117-1.777-2.641-1.777-4.66
		c0-1.983,0.617-3.545,1.807-4.643c1.199-1.108,2.927-1.67,5.118-1.67c0.25,0,0.437,0.002,0.553,0.006
		c0.116,0.003-0.01,0.007,0.1,0.015l0.299,0.039v-1.813l-0.188-0.064C132.2-150.675,132.32-150.686,132.192-150.69z"/>
	<path fill="#252428" d="M144.014-143.088c-0.548-0.896-1.257-1.595-2.105-2.077c-0.852-0.484-1.797-0.729-2.812-0.729
		c-1.633,0-3.005,0.562-4.077,1.671c-1.069,1.104-1.611,2.517-1.611,4.197c0,0.779,0.137,1.529,0.408,2.23
		c0.272,0.701,0.672,1.339,1.19,1.899c0.526,0.563,1.15,0.996,1.854,1.289c0.698,0.292,1.464,0.439,2.277,0.439
		c0.739,0,1.239-0.127,1.888-0.381c0.6-0.233,1.475-0.578,1.475-1.024v1.073h2v-4.937c0-0.807,0.092-1.479-0.03-2.053
		C144.347-142.086,144.294-142.623,144.014-143.088z M142.5-138.221l-0.369,0.645c-0.464,0.524-0.868,0.922-1.401,1.182
		c-0.518,0.254-1.037,0.383-1.644,0.383c-1.108,0-1.969-0.369-2.686-1.128c-0.725-0.765-1.064-1.715-1.064-2.907
		c0-1.175,0.363-2.123,1.097-2.896c0.73-0.766,1.616-1.139,2.7-1.139c1.154,0,1.844,0.392,2.524,1.197
		c0.692,0.82,0.842,1.959,0.842,3.384V-138.221z"/>
	<path fill="#252428" d="M148.5-148.5h-2v10.025c0,1.352,0.336,2.32,1.125,3.015c0.771,0.684,1.853,0.96,3.342,0.96h0.533v-2h-0.694
		c-0.919,0-1.465-0.031-1.852-0.396c-0.378-0.354-0.454-0.813-0.454-1.665v-4.939h3v-2h-3V-148.5z"/>
	<path fill="#252428" d="M162.826-143.087c-0.549-0.896-1.256-1.595-2.105-2.078c-0.85-0.484-1.797-0.729-2.814-0.729
		c-1.631,0-3.001,0.562-4.074,1.671c-1.068,1.104-1.611,2.516-1.611,4.197c0,0.777,0.136,1.526,0.406,2.23
		c0.271,0.701,0.673,1.34,1.193,1.899c0.525,0.563,1.149,0.997,1.852,1.289c0.697,0.292,1.465,0.439,2.279,0.439
		c0.736,0,1.33-0.127,1.979-0.381c0.6-0.233,1.569-0.578,1.569-1.023v1.072h2v-4.937c0-0.786-0.003-1.477-0.124-2.054
		C163.249-142.094,163.104-142.631,162.826-143.087z M161.5-138.217l-0.46,0.641c-0.465,0.523-0.917,0.922-1.45,1.182
		c-0.518,0.254-1.061,0.383-1.666,0.383c-1.107,0-1.981-0.369-2.699-1.129c-0.725-0.762-1.069-1.713-1.069-2.906
		c0-1.175,0.36-2.122,1.095-2.896c0.729-0.766,1.612-1.138,2.699-1.138c1.153,0,1.936,0.392,2.615,1.197
		c0.693,0.819,0.936,1.958,0.936,3.384V-138.217z"/>
	<rect x="165.5" y="-150.5" fill="#252428" width="2" height="16"/>
	<path fill="#252428" d="M176.5-139.062c0,0.948-0.301,1.687-0.828,2.259c-0.521,0.562-1.203,0.834-2.041,0.834
		c-0.846,0-1.664-0.274-2.188-0.84c-0.532-0.574-0.943-1.312-0.943-2.253v-6.438h-2v6.149c0,1.474,0.482,2.661,1.18,3.527
		c0.629,0.785,1.82,1.306,2.82,1.554v4.771h2v-4.765c1-0.231,2.166-0.749,2.809-1.542c0.713-0.879,1.191-2.071,1.191-3.544v-6.149
		h-2V-139.062z"/>
	<path fill="#252428" d="M185.069-140.817l-2.083-0.586c-0.655-0.187-1.127-0.404-1.402-0.645c-0.227-0.197-0.332-0.417-0.332-0.693
		c0-0.495,0.189-0.521,0.331-0.636c0.253-0.203,0.657-0.123,1.202-0.123h4.715v-2h-4.383c-1.153,0-2.066,0.143-2.716,0.623
		c-0.694,0.514-1.048,1.202-1.048,2.143c0,0.788,0.261,1.429,0.773,1.954c0.48,0.495,1.211,0.867,2.172,1.132l2.003,0.551
		c0.747,0.2,1.283,0.443,1.595,0.729c0.271,0.247,0.398,0.539,0.398,0.923c0,0.376-0.14,0.508-0.439,0.721
		c-0.348,0.244-0.867,0.225-1.541,0.225H179.5v2h4.161c1.483,0,2.569-0.17,3.319-0.665c0.805-0.53,1.213-1.309,1.213-2.382
		c0-0.811-0.283-1.494-0.842-2.065C186.824-140.151,186.055-140.545,185.069-140.817z"/>
	<path fill="#252428" d="M194.5-143.5v-2h-3v-3h-2v10.025c0,1.352,0.28,2.319,1.069,3.015c0.771,0.684,1.796,0.96,3.284,0.96h0.646
		v-2h-0.807c-0.918,0-1.408-0.031-1.795-0.396c-0.379-0.356-0.398-0.814-0.398-1.665v-4.939H194.5z"/>
</g>
</svg>
