<?xml version="1.0" encoding="utf-8"?>
<!-- Generator: Adobe Illustrator 23.0.4, SVG Export Plug-In . SVG Version: 6.00 Build 0)  -->
<svg version="1.1" id="Ebene_1" xmlns="http://www.w3.org/2000/svg" xmlns:xlink="http://www.w3.org/1999/xlink" x="0px" y="0px"
	 viewBox="0 0 1077.23 325.67" style="enable-background:new 0 0 1077.23 325.67;" xml:space="preserve">
<style type="text/css">
	.st0{fill:#95C11F;}
</style>
<g id="Nt">
	<g>
		<g>
			<path class="st0" d="M210.95,111.46c0.01-0.2,0.03-0.4,0.03-0.61c0-5.9-4.79-10.69-10.69-10.69s-10.69,4.79-10.69,10.69h-0.03
				v75.53l-83.09-83.09c-1.93-1.93-4.61-3.13-7.56-3.13c-5.9,0-10.69,4.79-10.69,10.69v101.36c0,5.9,4.79,10.69,10.69,10.69
				c5.9,0,10.69-4.79,10.69-10.69v-75.55l83.11,83.11c1.93,1.93,4.61,3.13,7.56,3.13c5.9,0,10.69-4.79,10.69-10.69
				c0-0.1-0.01-0.2-0.02-0.3L210.95,111.46L210.95,111.46z"/>
		</g>
		<g>
			<path class="st0" d="M267.45,201.53h-6.97c-9.63,0-17.44-7.81-17.44-17.44v-31.14h24.41l0,0c5.9,0,10.69-4.79,10.69-10.69
				s-4.79-10.69-10.69-10.69h-24.41v-20.71c0-5.9-4.79-10.69-10.69-10.69s-10.69,4.79-10.69,10.69v73.23
				c0,21.44,17.38,38.82,38.82,38.82h6.97c5.9,0,10.69-4.79,10.69-10.69S273.36,201.53,267.45,201.53z"/>
		</g>
	</g>
</g>
<g id="Bubble">
	<g>
		<path class="st0" d="M182.97,325.67c-89.79,0-162.84-73.05-162.84-162.84c0-10.49,1.01-20.97,3-31.23C8.54,118.58,0,99.78,0,80.09
			c0-38.02,30.94-68.96,68.96-68.96c12.35,0,24.24,3.24,34.77,9.42C127.88,7.09,155.13,0,182.96,0
			c89.8,0,162.85,73.05,162.85,162.83C345.81,252.62,272.76,325.67,182.97,325.67z M68.96,31.13c-27,0-48.96,21.96-48.96,48.96
			c0,15.55,7.51,30.33,20.1,39.54l5.34,3.91l-1.51,6.45c-2.52,10.72-3.79,21.77-3.79,32.84c0,78.76,64.08,142.84,142.84,142.84
			c78.76,0,142.84-64.08,142.84-142.84C325.81,84.07,261.73,20,182.96,20c-26.28,0-51.98,7.2-74.3,20.83l-5.68,3.46l-5.39-3.9
			C89.21,34.33,79.3,31.13,68.96,31.13z"/>
	</g>
</g>
<g id="Ebene_3">
	<g>
		<g>
			<path class="st0" d="M508.96,213.01c0.99,0.99,1.48,2.38,1.48,4.18s-0.5,3.19-1.48,4.18c-0.99,0.99-2.39,1.48-4.18,1.48h-48.46
				c-1.8,0-3.19-0.49-4.18-1.48c-0.99-0.99-1.48-2.38-1.48-4.18v-80.06c0-1.8,0.49-3.19,1.48-4.18s2.38-1.48,4.18-1.48h48.46
				c1.8,0,3.19,0.49,4.18,1.48c0.99,0.99,1.48,2.38,1.48,4.18s-0.5,3.19-1.48,4.18c-0.99,0.99-2.39,1.48-4.18,1.48h-42.79v28.31
				h26.86c1.8,0,3.19,0.49,4.18,1.48c0.99,0.99,1.48,2.38,1.48,4.18s-0.5,3.19-1.48,4.18c-0.99,0.99-2.39,1.48-4.18,1.48h-26.86
				v29.11h42.79C506.57,211.53,507.97,212.02,508.96,213.01z"/>
		</g>
		<g>
			<path class="st0" d="M674.31,132.95c0.99,0.99,1.49,2.38,1.49,4.18v80.06c0,1.8-0.5,3.19-1.49,4.18s-2.39,1.48-4.18,1.48
				c-1.08,0-2.07-0.27-2.97-0.81c-0.9-0.54-1.8-1.39-2.7-2.56l-51.43-66.18v63.89c0,1.8-0.5,3.19-1.48,4.18
				c-0.99,0.99-2.39,1.48-4.19,1.48s-3.19-0.49-4.18-1.48c-0.99-0.99-1.48-2.38-1.48-4.18v-80.06c0-1.8,0.49-3.19,1.48-4.18
				s2.38-1.48,4.18-1.48c1.08,0,2.05,0.27,2.9,0.81c0.85,0.54,1.78,1.39,2.77,2.56l51.43,66.18v-63.89c0-1.8,0.49-3.19,1.49-4.18
				c0.99-0.99,2.38-1.48,4.18-1.48C671.93,131.46,673.32,131.96,674.31,132.95z"/>
		</g>
		<g>
			<path class="st0" d="M832.11,221.5c-0.9-0.9-1.35-2.34-1.35-4.31v-79.93c0-1.98,0.45-3.41,1.35-4.31c0.9-0.9,2.34-1.35,4.32-1.35
				s3.42,0.45,4.32,1.35s1.35,2.34,1.35,4.31v79.93c0,1.98-0.45,3.42-1.35,4.31c-0.9,0.9-2.34,1.35-4.32,1.35
				S833,222.4,832.11,221.5z"/>
		</g>
		<g>
			<path class="st0" d="M999.08,213.01c0.99,0.99,1.49,2.38,1.49,4.18s-0.49,3.19-1.49,4.18c-0.99,0.99-2.39,1.48-4.18,1.48h-48.46
				c-1.8,0-3.2-0.49-4.18-1.48c-0.99-0.99-1.49-2.38-1.49-4.18v-80.06c0-1.8,0.49-3.19,1.49-4.18c0.99-0.99,2.38-1.48,4.18-1.48
				h48.46c1.8,0,3.19,0.49,4.18,1.48c0.99,0.99,1.49,2.38,1.49,4.18s-0.49,3.19-1.49,4.18c-0.99,0.99-2.39,1.48-4.18,1.48h-42.79
				v28.31h26.86c1.8,0,3.19,0.49,4.18,1.48c0.99,0.99,1.49,2.38,1.49,4.18s-0.5,3.19-1.49,4.18s-2.39,1.48-4.18,1.48h-26.86v29.11
				h42.79C996.7,211.53,998.09,212.02,999.08,213.01z"/>
		</g>
		<g>
			<g>
				<path class="st0" d="M1020.72,151.5c0.19-1.32,0.47-2.46,0.84-3.39c0.76-1.93,2.11-3.3,4.05-4.11c1.94-0.81,4.75-1.21,8.44-1.21
					h16.06c4.14,0,7.2,0.5,9.18,1.48c1.98,0.99,3.33,2.79,4.05,5.39c0.27,1.89,0.85,3.28,1.75,4.18s2.25,1.35,4.05,1.35
					c1.98,0,3.46-0.52,4.46-1.55c0.99-1.03,1.35-2.49,1.08-4.38c-2.16-11.86-10.35-17.79-24.57-17.79h-16.06
					c-8.46,0-14.74,2.04-18.83,6.13c-3.26,3.25-5.2,7.9-5.86,13.91h11.36V151.5z"/>
			</g>
			<g>
				<path class="st0" d="M1070.76,176.75c-4.32-4.31-10.93-6.47-19.84-6.47h-16.74c-3.69,0-6.5-0.43-8.44-1.28s-3.31-2.25-4.12-4.18
					c-0.24-0.57-0.43-1.25-0.6-1.98h-11.48c0.82,5.35,2.72,9.55,5.74,12.56c4.14,4.13,10.44,6.2,18.9,6.2h16.74
					c5.67,0,9.58,1.08,11.74,3.23c2.16,2.16,3.24,6.11,3.24,11.86c0,3.86-0.45,6.85-1.35,8.96s-2.41,3.62-4.52,4.51
					c-2.12,0.9-5.15,1.35-9.11,1.35h-19.44c-4.68,0-8.12-0.58-10.33-1.75s-3.62-3.28-4.25-6.34c-0.36-1.97-0.99-3.39-1.89-4.25
					c-0.9-0.85-2.25-1.28-4.05-1.28c-1.89,0-3.33,0.52-4.32,1.55s-1.4,2.49-1.22,4.38c1.08,6.47,3.76,11.25,8.03,14.35
					s10.28,4.65,18.02,4.65h19.44c8.91,0,15.52-2.13,19.84-6.4s6.48-10.85,6.48-19.74C1077.23,187.72,1075.07,181.07,1070.76,176.75
					z"/>
			</g>
		</g>
		<g>
			<path class="st0" d="M762.86,214.9l-32.67-78.99c-0.99-2.78-2.97-4.27-5.94-4.45h-0.27c-2.88,0-4.99,1.48-6.34,4.45l-17.48,42.98
				h11.82l11.6-29.5l16.87,40.84h-27.58h-5.36h-11.97l-10.03,24.66c-0.36,0.81-0.54,1.71-0.54,2.7c0,2.25,1.26,3.82,3.78,4.72
				c0.81,0.36,1.66,0.54,2.57,0.54c2.16,0,3.73-1.21,4.72-3.64l7.02-17.66h41.98l7.29,17.66c0.99,2.43,2.56,3.64,4.72,3.64
				c0.99,0,1.89-0.18,2.7-0.54c2.43-0.99,3.64-2.56,3.64-4.72C763.4,216.61,763.22,215.71,762.86,214.9z"/>
		</g>
		<g>
			<g>
				<path class="st0" d="M526.64,171.49v-9.83c0-4.94,0.56-8.76,1.69-11.46c1.12-2.7,3.04-4.63,5.74-5.8
					c2.7-1.17,6.48-1.71,11.34-1.62h16.33c5.4,0,9.27,0.74,11.61,2.22c2.34,1.48,3.73,4.25,4.18,8.29c0.27,1.89,0.88,3.3,1.82,4.25
					c0.94,0.94,2.32,1.42,4.12,1.42c1.89,0,3.33-0.49,4.32-1.48c0.99-0.99,1.35-2.43,1.08-4.31c-0.72-7.46-3.31-12.94-7.76-16.44
					s-10.91-5.26-19.37-5.26h-16.33c-10.26-0.09-17.84,2.34-22.74,7.28c-4.91,4.94-7.36,12.58-7.36,22.91v9.83L526.64,171.49
					L526.64,171.49z"/>
			</g>
			<g>
				<path class="st0" d="M583.47,195.35c-1.8,0-3.17,0.47-4.12,1.42c-0.95,0.94-1.55,2.36-1.82,4.25c-0.45,4.04-1.85,6.81-4.18,8.29
					c-2.34,1.48-6.21,2.22-11.61,2.22h-16.2c-4.95,0-8.75-0.58-11.41-1.75s-4.57-3.08-5.74-5.73c-1.17-2.65-1.75-6.45-1.75-11.39
					v-9.83H515.3v9.83c0,10.33,2.45,17.95,7.36,22.85c4.9,4.9,12.53,7.35,22.88,7.35h16.2c8.46,0,14.92-1.75,19.37-5.26
					s7.04-8.98,7.76-16.44c0.27-1.89-0.09-3.32-1.08-4.31C586.8,195.85,585.36,195.35,583.47,195.35z"/>
			</g>
		</g>
		<g>
			<g>
				<path class="st0" d="M397.6,154.26v62.93c0,3.78,1.89,5.66,5.67,5.66c1.8,0,3.19-0.49,4.18-1.48c0.99-0.99,1.49-2.38,1.49-4.18
					v-62.93H397.6z"/>
			</g>
			<g>
				<path class="st0" d="M435.12,131.6h-63.71c-3.78,0-5.67,1.89-5.67,5.66c0,3.78,1.89,5.66,5.67,5.66h23.72h2.46h11.34h3.78h22.41
					c3.78,0,5.67-1.89,5.67-5.66C440.79,133.49,438.9,131.6,435.12,131.6z"/>
			</g>
		</g>
		<g>
			<g>
				<path class="st0" d="M777.71,154.26v62.93c0,3.78,1.89,5.66,5.67,5.66c1.8,0,3.19-0.49,4.19-1.48c0.99-0.99,1.48-2.38,1.48-4.18
					v-62.93H777.71z"/>
			</g>
			<g>
				<path class="st0" d="M815.24,131.6h-63.71c-3.78,0-5.67,1.89-5.67,5.66c0,3.78,1.89,5.66,5.67,5.66h23.07h3.12h11.34h3.12h23.07
					c3.78,0,5.67-1.89,5.67-5.66C820.9,133.49,819.01,131.6,815.24,131.6z"/>
			</g>
		</g>
		<g>
			<g>
				<path class="st0" d="M889.8,193.58l-24.76-58.48c-0.9-2.43-2.43-3.64-4.59-3.64c-1.08,0-2.16,0.27-3.24,0.81
					c-2.16,0.99-3.24,2.43-3.24,4.31c0,0.81,0.22,1.8,0.67,2.96l22.85,54.03h12.31V193.58z"/>
			</g>
			<g>
				<path class="st0" d="M931.18,132.27c-1.17-0.54-2.25-0.81-3.24-0.81c-2.07,0-3.6,1.21-4.59,3.64l-28.75,69.82h-12.31l5.7,13.48
					c1.35,2.96,3.19,4.45,5.53,4.45h0.54c2.61,0,4.63-1.48,6.08-4.45l33.61-78.85c0.36-0.81,0.54-1.71,0.54-2.7
					C934.29,134.79,933.25,133.26,931.18,132.27z"/>
			</g>
		</g>
	</g>
</g>
</svg>
