<?xml version="1.0" encoding="utf-8"?>
<!-- Generator: Adobe Illustrator 24.0.1, SVG Export Plug-In . SVG Version: 6.00 Build 0)  -->
<svg version="1.1" id="Layer_1" xmlns="http://www.w3.org/2000/svg" xmlns:xlink="http://www.w3.org/1999/xlink" x="0px" y="0px"
	 viewBox="0 0 67.17 59.91" style="enable-background:new 0 0 67.17 59.91;" xml:space="preserve">
<style type="text/css">
	.st0{fill:#FFFFFF;}
</style>
<g>
	<g>
		<path class="st0" d="M62.52,21.16c-0.11,0-0.22,0.01-0.33,0.02C58.5,8.94,47.13,0,33.7,0C20.26,0,8.88,8.96,5.2,21.22
			c-0.18-0.04-0.36-0.06-0.55-0.06C2.08,21.16,0,25.07,0,29.89s2.08,8.74,4.65,8.74c0.21,0,0.42-0.03,0.62-0.08
			c0.96-0.24,1.82-1.03,2.5-2.19c-0.54-2.11-0.83-4.33-0.83-6.6c0-2.21,0.27-4.35,0.78-6.4C10.61,11.69,21.16,3.01,33.7,3.01
			c12.45,0,22.93,8.54,25.91,20.07c0.55,2.13,0.84,4.37,0.84,6.68c0,2.37-0.32,4.68-0.9,6.87c-1.58,5.93-5.14,11.06-9.94,14.62
			c-1.2-0.19-2.75,0-4.3,0.64c-2.06,0.84-3.57,2.22-4.04,3.52c-0.19,0.53-0.22,1.05-0.03,1.51c0.23,0.57,0.75,0.97,1.45,1.2
			c1.26,0.42,3.11,0.29,4.98-0.47c2.5-1.03,4.2-2.85,4.2-4.35c4.78-3.7,8.41-8.8,10.25-14.7c0.13,0.02,0.27,0.03,0.4,0.03
			c2.57,0,4.65-3.91,4.65-8.74S65.09,21.16,62.52,21.16z"/>
		<g>
			<path class="st0" d="M33.75,59.91c-0.03,0-0.06,0-0.09,0c-2.46-0.11-3.81-2.23-5.11-4.29c-0.24-0.38-0.49-0.77-0.75-1.16
				c-0.57-0.85-1.67-1.5-3.11-2.24c-0.06,0.01-0.13,0.21-0.19,0.21h-0.01c-0.29,0-0.56-0.27-0.81-0.4
				C15.48,48.31,9.99,39.48,9.99,30.17c0-13.26,10.7-24.09,23.86-24.09c13.16,0,23.86,10.68,23.86,23.84
				c0,9.67-5.76,18.29-14.68,22.01c-1.44,0.73-2.6,1.64-3.18,2.5c-0.27,0.39-0.52,0.79-0.77,1.18c-1.29,2.04-2.63,4.15-5.07,4.28
				C33.94,59.9,33.85,59.91,33.75,59.91z M24.84,49.43c0.25,0,0.5-0.39,0.73-0.29c2.3,1.06,4.03,2.17,5.02,3.64
				c0.28,0.41,0.54,0.72,0.81,1.13c0.76,1.19,1.61,2.48,2.31,2.65c0.05,0,0.1-0.03,0.15-0.03c0.7-0.08,1.59-1.49,2.37-2.73
				c0.27-0.42,0.54-0.86,0.82-1.28c1.18-1.74,3.1-2.95,4.51-3.66c0.04-0.02,0.08-0.04,0.11-0.05c7.68-3.18,12.65-10.61,12.65-18.93
				c0-11.29-9.19-20.48-20.48-20.48c-11.29,0-20.69,9.27-20.69,20.66c0,7.84,5.04,15.18,11.04,18.48v0.21c0,0,0.53,0.67,0.59,0.67
				C24.8,49.43,24.82,49.43,24.84,49.43z"/>
		</g>
	</g>
	<g>
		<path class="st0" d="M25.88,30.38c0,1.45-1.18,2.63-2.63,2.63c-1.45,0-2.63-1.18-2.63-2.63c0-1.45,1.18-2.63,2.63-2.63
			C24.7,27.74,25.88,28.92,25.88,30.38z"/>
		<path class="st0" d="M36.21,30.38c0,1.45-1.18,2.63-2.63,2.63c-1.45,0-2.63-1.18-2.63-2.63c0-1.45,1.18-2.63,2.63-2.63
			C35.04,27.74,36.21,28.92,36.21,30.38z"/>
		<path class="st0" d="M46.55,30.38c0,1.45-1.18,2.63-2.63,2.63c-1.45,0-2.63-1.18-2.63-2.63c0-1.45,1.18-2.63,2.63-2.63
			C45.37,27.74,46.55,28.92,46.55,30.38z"/>
	</g>
</g>
</svg>
