<?xml version="1.0" encoding="utf-8"?>
<!-- Generator: Adobe Illustrator 24.0.1, SVG Export Plug-In . SVG Version: 6.00 Build 0)  -->
<svg version="1.1" id="Layer_1" xmlns="http://www.w3.org/2000/svg" xmlns:xlink="http://www.w3.org/1999/xlink" x="0px" y="0px"
	 viewBox="0 0 98 76.99" style="enable-background:new 0 0 98 76.99;" xml:space="preserve">
<style type="text/css">
	.st0{fill:#FFFFFF;}
</style>
<path class="st0" d="M83.85,0H14.15C6.35,0,0,6.35,0,14.15v48.69c0,7.8,6.35,14.15,14.15,14.15h69.71c7.8,0,14.15-6.35,14.15-14.15
	V14.15C98,6.35,91.65,0,83.85,0z M83.85,6.76c0.58,0,1.14,0.07,1.68,0.2l-29.4,33.37c-1.8,2.04-4.4,3.22-7.13,3.22
	s-5.32-1.17-7.12-3.22L12.47,6.96c0.54-0.13,1.1-0.2,1.68-0.2H83.85z M91.24,62.84c0,4.07-3.31,7.39-7.38,7.39H14.15
	c-4.07,0-7.38-3.31-7.38-7.39V14.15c0-0.99,0.2-1.93,0.55-2.8L36.8,44.8c3.08,3.5,7.53,5.51,12.2,5.51s9.11-2.01,12.2-5.51
	l29.48-33.45c0.36,0.86,0.55,1.81,0.55,2.8V62.84z"/>
</svg>
