<?xml version="1.0" encoding="utf-8"?>
<!-- Generator: Adobe Illustrator 24.0.1, SVG Export Plug-In . SVG Version: 6.00 Build 0)  -->
<svg version="1.1" id="Layer_1" xmlns="http://www.w3.org/2000/svg" xmlns:xlink="http://www.w3.org/1999/xlink" x="0px" y="0px"
	 viewBox="0 0 34.51 38.96" style="enable-background:new 0 0 34.51 38.96;" xml:space="preserve">
<style type="text/css">
	.st0{fill:#FFFFFF;}
</style>
<path class="st0" d="M28.06,28.61c-1.21,0-2.32,0.42-3.2,1.11l-9.8-6.98c0.13-0.56,0.21-1.15,0.21-1.75c0-0.96-0.19-1.88-0.51-2.73
	l9.4-6.69c1.08,0.83,2.43,1.32,3.9,1.32c3.56,0,6.45-2.89,6.45-6.45S31.62,0,28.06,0c-3.56,0-6.45,2.89-6.45,6.45
	c0,0.7,0.12,1.38,0.33,2.02l-9.39,6.69c-1.33-1.12-3.04-1.8-4.92-1.8C3.42,13.35,0,16.77,0,20.99c0,4.22,3.42,7.64,7.64,7.64
	c2.23,0,4.23-0.96,5.62-2.48l9.69,6.9c-0.04,0.24-0.06,0.49-0.06,0.74c0,2.86,2.32,5.17,5.17,5.17c2.86,0,5.17-2.32,5.17-5.17
	S30.92,28.61,28.06,28.61z"/>
</svg>
