<?xml version="1.0" encoding="utf-8"?>
<!-- Generator: Adobe Illustrator 24.0.1, SVG Export Plug-In . SVG Version: 6.00 Build 0)  -->
<svg version="1.1" id="Layer_1" xmlns="http://www.w3.org/2000/svg" xmlns:xlink="http://www.w3.org/1999/xlink" x="0px" y="0px"
	 viewBox="0 0 48 55" style="enable-background:new 0 0 48 55;" xml:space="preserve">
<style type="text/css">
	.st0{fill:#FFFFFF;}
</style>
<g>
	<g>
		<path class="st0" d="M27,44H3V13.02C3,11.34,3.96,10,5.64,10H7V7H5.64C2.51,7,0,9.89,0,13.02v36.33C0,52.49,2.51,55,5.64,55h18.35
			c3.13,0,6.01-2.51,6.01-5.64V32h-3V44z M27,49.36c0,1.69-1.32,2.64-3.01,2.64H5.64C3.96,52,3,51.04,3,49.36V47h24V49.36z"/>
	</g>
	<g>
		<path class="st0" d="M16.5,36.86c-0.2,0-0.39-0.04-0.58-0.12C15.36,36.51,15,35.96,15,35.36V30h-1.24C11.18,30,9,27.96,9,25.52
			v-21C9,2.08,11.18,0,13.76,0h30C46.18,0,48,1.96,48,4.52v21c0,2.57-1.82,4.48-4.24,4.48H24.08l-6.53,6.42
			C17.26,36.7,16.89,36.86,16.5,36.86z M13.76,3C12.87,3,12,3.77,12,4.52v21c0,0.76,0.87,1.48,1.76,1.48h2.74
			c0.83,0,1.5,0.69,1.5,1.52v3.26l4.41-4.34c0.28-0.28,0.66-0.44,1.05-0.44h20.3c0.91,0,1.24-0.79,1.24-1.48v-21
			C45,3.83,44.68,3,43.76,3H13.76z"/>
	</g>
	<g>
		<path class="st0" d="M20.67,13.16c-1.2,0-2.17,0.97-2.17,2.17c0,1.2,0.97,2.17,2.17,2.17c1.2,0,2.17-0.97,2.17-2.17
			C22.84,14.14,21.87,13.16,20.67,13.16z"/>
		<path class="st0" d="M28.76,13.16c-1.2,0-2.17,0.97-2.17,2.17c0,1.2,0.97,2.17,2.17,2.17c1.2,0,2.17-0.97,2.17-2.17
			C30.93,14.14,29.96,13.16,28.76,13.16z"/>
		<path class="st0" d="M36.86,13.16c-1.2,0-2.17,0.97-2.17,2.17c0,1.2,0.97,2.17,2.17,2.17c1.2,0,2.17-0.97,2.17-2.17
			C39.03,14.14,38.06,13.16,36.86,13.16z"/>
	</g>
</g>
</svg>
