<?xml version="1.0" encoding="utf-8"?>
<!-- Generator: Adobe Illustrator 24.0.1, SVG Export Plug-In . SVG Version: 6.00 Build 0)  -->
<svg version="1.1" id="Layer_1" xmlns="http://www.w3.org/2000/svg" xmlns:xlink="http://www.w3.org/1999/xlink" x="0px" y="0px"
	 viewBox="0 0 61 48" style="enable-background:new 0 0 61 48;" xml:space="preserve">
<style type="text/css">
	.st0{fill:#FFFFFF;}
</style>
<g>
	<g>
		<path class="st0" d="M61,45.08c0,1.61-1.31,2.92-2.92,2.92H2.92C1.31,48,0,46.69,0,45.08V2.92C0,1.31,1.31,0,2.92,0h55.16
			C59.69,0,61,1.31,61,2.92V45.08z M3,3v42h55.34l0-42H3z"/>
	</g>
	<g>
		<rect x="2" y="6" class="st0" width="57" height="3"/>
	</g>
	<g>
		<path class="st0" d="M17,40H6V29h11V40z M9,37h5v-5H9V37z"/>
	</g>
	<g>
		<path class="st0" d="M17,25H6V14h11V25z M9,22h5v-5H9V22z"/>
	</g>
	<g>
		<path class="st0" d="M52.01,19h-29.7c-0.81,0-1.46-0.69-1.46-1.5S21.5,16,22.31,16h29.7c0.81,0,1.46,0.69,1.46,1.5
			S52.81,19,52.01,19z"/>
	</g>
	<g>
		<path class="st0" d="M34.48,24H22.31c-0.81,0-1.46-0.69-1.46-1.5c0-0.81,0.65-1.5,1.46-1.5h12.17c0.81,0,1.46,0.69,1.46,1.5
			C35.94,23.31,35.29,24,34.48,24z"/>
	</g>
	<g>
		<path class="st0" d="M52.01,34h-29.7c-0.81,0-1.46-0.69-1.46-1.5c0-0.81,0.65-1.5,1.46-1.5h29.7c0.81,0,1.46,0.69,1.46,1.5
			C53.47,33.31,52.81,34,52.01,34z"/>
	</g>
	<g>
		<path class="st0" d="M41.78,39H22.31c-0.81,0-1.46-0.69-1.46-1.5c0-0.81,0.65-1.5,1.46-1.5h19.47c0.81,0,1.46,0.69,1.46,1.5
			C43.24,38.31,42.59,39,41.78,39z"/>
	</g>
</g>
</svg>
